<svg xmlns="http://www.w3.org/2000/svg" width="356" height="408" viewBox="0 0 356 408" version="1.1"><path d="M 104 99.265 C 104 149.169, 104.238 190, 104.529 190 C 104.821 190, 110.384 186.432, 116.893 182.072 L 128.726 174.144 140.911 182.559 L 153.096 190.975 165.019 182.988 C 171.576 178.594, 177.520 175, 178.227 175 C 178.935 175, 184.564 178.375, 190.737 182.500 C 196.910 186.625, 202.195 190, 202.481 190 C 202.766 190, 203 149.169, 203 99.265 L 203 8.530 190.500 21 L 178 33.470 165.417 20.985 L 152.833 8.500 140.918 20.987 L 129.004 33.473 116.502 21.002 L 104 8.530 104 99.265 M 271.500 53.797 C 270.400 54.011, 260.050 56.652, 248.500 59.665 C 236.950 62.679, 225.813 65.579, 223.750 66.111 L 220 67.077 220 131.338 L 220 195.600 217.419 199.550 C 214.166 204.530, 210.884 206.982, 206.529 207.689 C 200.902 208.602, 196.809 207.260, 187.615 201.488 C 182.808 198.470, 178.432 196, 177.892 196 C 177.352 196, 173.498 198.302, 169.329 201.115 C 156.249 209.942, 151.696 209.938, 138.217 201.092 L 129.500 195.370 124 198.739 C 109.003 207.923, 103.484 209.518, 96.718 206.623 C 92.826 204.958, 88.511 200.516, 87.064 196.685 C 86.369 194.846, 86 178.074, 86 148.328 C 86 112.314, 85.738 102.883, 84.750 103.249 C 84.063 103.504, 66.642 108.155, 46.039 113.586 C 5.284 124.327, 3.490 125.071, 3.731 131.122 C 3.862 134.408, 72.919 392.725, 75.154 398.288 C 77.686 404.591, 80.897 404.471, 108.428 397.052 C 279.110 351.052, 343.042 333.769, 345.708 332.908 C 347.621 332.291, 349.783 330.469, 351.066 328.394 C 353.003 325.259, 353.101 324.448, 352.058 320.207 C 348.661 306.403, 281.635 58.258, 280.946 56.938 C 279.990 55.106, 274.373 53.239, 271.500 53.797 M 174.650 220.049 C 167.671 221.220, 162.360 223.569, 155.293 228.611 C 147.903 233.883, 146 236.354, 146 240.675 C 146 245.146, 147.666 248.372, 150.990 250.335 C 155.563 253.037, 159.039 252.388, 166.882 247.371 C 180.032 238.957, 192 240.581, 192 250.777 C 192 257.255, 188.649 260.166, 175.555 265.065 C 167.696 268.006, 167 269.390, 167 282.088 C 167 291.155, 167.291 293.100, 168.966 295.230 C 172.012 299.102, 175.966 300.355, 180.924 299.020 C 186.203 297.599, 188.991 293.401, 188.996 286.866 L 189 282.232 194.584 279.966 C 201.552 277.138, 209.755 269.749, 213.016 263.363 C 216.298 256.937, 216.430 245.813, 213.307 238.878 C 208.809 228.889, 200.001 222.211, 188.526 220.089 C 182.012 218.885, 181.593 218.884, 174.650 220.049 M 172.325 315.426 C 168.390 317.179, 165.962 320.764, 165.357 325.712 C 164.762 330.589, 167.473 335.048, 172.479 337.423 C 182.451 342.155, 192.946 331.986, 188.664 321.739 C 186.096 315.593, 178.521 312.665, 172.325 315.426" stroke="none" fill="#f5925f" fill-rule="evenodd"/></svg>