<svg xmlns="http://www.w3.org/2000/svg" width="752" height="752" viewBox="0 0 752 752" version="1.1"><path d="M 358.500 35.508 C 330.512 40.671, 309.119 51.621, 291.127 69.992 C 277.491 83.916, 267.938 99.366, 262.370 116.500 C 257.379 131.860, 256.008 141.602, 256.004 161.750 L 256 179 208.545 179 L 161.091 179 160.597 182.250 C 160.326 184.037, 159.860 189.100, 159.563 193.500 C 159.266 197.900, 151.568 298.925, 142.456 418 C 130.523 573.948, 126.076 636.458, 126.556 641.500 C 129.108 668.281, 148.451 693.384, 174.022 703.100 C 187.402 708.184, 179.787 708, 376.608 708 C 579.746 708, 568.088 708.366, 582.691 701.524 C 593.145 696.626, 600.804 691.090, 608.244 683.054 C 619.231 671.187, 626.926 652.385, 627.056 637.090 C 627.087 633.466, 619.327 528.913, 609.812 404.750 L 592.511 179 545.407 179 L 498.304 179 497.686 159.750 C 496.678 128.370, 491.345 109.566, 477.480 88.513 C 462.711 66.086, 440.236 48.908, 414.736 40.554 C 395.375 34.212, 375.292 32.410, 358.500 35.508 M 365.618 70.137 C 352.900 71.769, 337.044 78.064, 327 85.467 C 320.548 90.223, 310.869 100.438, 306.282 107.333 C 295.853 123.009, 292.033 137.844, 292.013 162.750 L 292 179 377 179 L 462 179 461.974 168.250 C 461.884 130.593, 453.310 108.537, 431.500 89.855 C 418.562 78.774, 403.570 72.194, 386.500 70.106 C 376.472 68.880, 375.394 68.882, 365.618 70.137 M 264.173 233.741 C 256.631 238.632, 254.017 248.086, 257.881 256.500 C 260.066 261.258, 262.296 263.390, 267.254 265.462 C 272.237 267.544, 276.179 267.396, 281.424 264.931 C 289.204 261.274, 293.623 251.447, 291.025 243.577 C 287.243 232.116, 274.102 227.303, 264.173 233.741 M 469.342 233.591 C 463.229 237.614, 460.670 242.763, 461.193 249.991 C 461.705 257.072, 465.229 262.292, 471.384 265.087 C 476.942 267.611, 480.675 267.469, 486.554 264.511 C 498.737 258.380, 500.277 242.652, 489.499 234.431 C 486.536 232.171, 484.488 231.504, 479.630 231.217 C 474.288 230.902, 472.966 231.207, 469.342 233.591 M 364.500 318.586 C 331.055 326.007, 307.690 355.436, 307.800 390 C 307.850 405.789, 311.691 418.365, 320.297 430.917 C 324.265 436.704, 333.842 446.084, 339.324 449.552 L 343.682 452.309 360.591 511.600 C 369.891 544.210, 377.767 570.578, 378.093 570.195 C 378.420 569.813, 385.994 543.834, 394.925 512.464 L 411.163 455.429 416.779 452.488 C 424.030 448.692, 437.736 435.189, 442.142 427.500 C 450.223 413.400, 453.636 399.423, 452.643 384.500 C 450.630 354.233, 430.587 329.442, 400.500 320.004 C 391.182 317.081, 374.281 316.415, 364.500 318.586 M 364.822 356.325 C 349.780 362.665, 341.324 375.741, 342.185 391.326 C 342.945 405.066, 350.986 416.892, 363.500 422.672 C 371.388 426.316, 382.542 426.494, 391.202 423.117 C 408.401 416.408, 417.631 397.592, 412.387 379.932 C 409.330 369.636, 403 362.136, 393 356.959 C 386.102 353.388, 372.513 353.082, 364.822 356.325 M 338 537.624 C 319.920 540.322, 303.850 546.048, 296.129 552.545 C 288.859 558.662, 285.471 569.468, 287.996 578.487 C 291.699 591.713, 309.798 601.224, 339.735 605.676 C 354.426 607.861, 399.599 608.194, 413.500 606.219 C 445.696 601.647, 463.468 592.519, 467.556 578.455 C 473.597 557.675, 455.304 542.994, 416.717 537.654 L 406.993 536.308 405.054 542.904 C 401.246 555.854, 400.128 554.251, 414.354 556.234 C 429.715 558.375, 441.277 561.931, 446.250 566.044 C 453.820 572.305, 450.124 577.632, 434.852 582.477 C 395.424 594.984, 314.775 589.809, 306.623 574.249 C 305.354 571.828, 305.370 571.181, 306.760 568.830 C 309.885 563.538, 325.214 558.231, 344.354 555.814 C 349.672 555.142, 353.989 554.125, 353.976 553.548 C 353.919 551.028, 349.227 536.585, 348.407 536.406 C 347.908 536.296, 343.225 536.844, 338 537.624" stroke="none" fill="#ffffff" fill-rule="evenodd"/></svg>